<svg width="50" height="50" viewBox="0 0 50 50" fill="none" xmlns="http://www.w3.org/2000/svg">
<path d="M30.6248 13.1253C30.2431 13.5148 30.0293 14.0384 30.0293 14.5837C30.0293 15.129 30.2431 15.6526 30.6248 16.042L33.9582 19.3753C34.3476 19.7571 34.8712 19.9709 35.4165 19.9709C35.9618 19.9709 36.4854 19.7571 36.8748 19.3753L44.729 11.5212C45.7766 13.8362 46.0937 16.4154 45.6383 18.9152C45.1828 21.415 43.9763 23.7167 42.1796 25.5134C40.3828 27.3102 38.0812 28.5167 35.5814 28.9721C33.0816 29.4276 30.5023 29.1104 28.1873 28.0628L13.7915 42.4587C12.9627 43.2875 11.8386 43.7531 10.6665 43.7531C9.49439 43.7531 8.37029 43.2875 7.54149 42.4587C6.71269 41.6299 6.24707 40.5058 6.24707 39.3337C6.24707 38.1616 6.71269 37.0375 7.54149 36.2087L21.9373 21.8128C20.8897 19.4979 20.5726 16.9186 21.028 14.4188C21.4835 11.919 22.69 9.61734 24.4867 7.8206C26.2835 6.02386 28.5851 4.81736 31.0849 4.36189C33.5848 3.90642 36.164 4.2236 38.479 5.27118L30.6457 13.1045L30.6248 13.1253Z" stroke="#111111" stroke-width="2" stroke-linecap="round" stroke-linejoin="round"/>
</svg>
