<?xml version="1.0" encoding="utf-8"?>
<!-- Generator: Adobe Illustrator 24.0.1, SVG Export Plug-In . SVG Version: 6.00 Build 0)  -->
<svg version="1.0" xmlns="http://www.w3.org/2000/svg" xmlns:xlink="http://www.w3.org/1999/xlink" x="0px" y="0px"
	 viewBox="0 0 841.89 595.28" style="enable-background:new 0 0 841.89 595.28;" xml:space="preserve">
<style type="text/css">
	.st0{fill:none;stroke:#FF683B;stroke-width:2;stroke-miterlimit:10;}
	.st1{fill:#2F3F58;}
	.st2{fill:#FF683B;}
</style>
<g id="Camada_3">
	<path class="st0" d="M88.65,433.84c28.89-0.21,72.37-5.86,99.7-48.47c18.39-28.68,11.58-57.75,5.22-70.98
		c-9.11-18.95-15.55-22.67-30.18-46.32c-7.56-12.21-30.97-50.04-27.13-84.76c6.02-54.41,77.82-85.02,83.02-86.19
		c1.54-0.35-3.35,5.2-7.82,13.77c-12.95,24.82-14.42,64.97,6.83,94.44c28.61,39.68,60.64,40.22,68.81,40.26
		c24.34,0.13,38.93-3.83,66.91-12.41c27.82-8.53,60.56-7.11,90.28,18.42c37.73,32.41,35.99,88.5,34.8,98
		c-0.23,1.87-5.05-3.27-8.78-9.04c-4.54-4.89-45.93-48.09-99.75-39.7c-45.69,7.12-72.77,47.13-79.88,57.63
		c-15.38,22.73-14.55,29.98-28.91,56.18c-9.59,17.5-28.96,39.52-58.38,48.24c-20.51,6.08-64.41,1.74-111.35-22.67
		C85.36,436.78,84.91,433.87,88.65,433.84z"/>
</g>
<g id="Camada_4">
	<g>
		<path class="st0" d="M124.59,413.35c-7.48-15.05-43.94-59.51-41.99-114.09c0.9-25.15,7.56-45.78,17.01-58.75
			c15.94-21.87,36.54-32.96,35.83-33.08c-2.77-0.46-14.86,4.75-21.34,8.52c-46.48,27.07-54.63,81.15-55.78,85.74
			c-12.07,48.12,6.61,99.03,16.96,117.6c0.34,0.61,16.14-0.41,23.29-0.89C113.49,417.38,124.59,413.35,124.59,413.35z"/>
	</g>
</g>
<g id="Camada_1">
	<path class="st1" d="M529.77,297.91c0.15-146.29-120.11-266.8-266.4-266.94c-0.18,177.78-0.36,355.57-0.54,533.35
		C409.12,564.46,529.62,444.2,529.77,297.91z"/>
</g>
<g id="Camada_5">
	<g>
		<path class="st2" d="M312.95,348.06c-13,0-23.42-4.31-31.27-12.94c-7.84-8.62-11.77-19.91-11.77-33.86v-1.04
			c0-13.52,4.16-24.72,12.48-33.6c8.32-8.88,18.5-13.32,30.55-13.32c9.71,0,17.96,2.45,24.76,7.34c6.8,4.9,10.99,11.81,12.55,20.74
			h-4.68c-1.65-7.71-5.27-13.67-10.85-17.88c-5.59-4.2-12.85-6.31-21.77-6.31c-11.01,0-20.13,4.01-27.37,12.02
			c-7.24,8.02-10.85,18.31-10.85,30.88v1.04c0,13,3.47,23.4,10.4,31.2c6.93,7.8,16.25,11.7,27.95,11.7c8.84,0,16.31-2.32,22.42-6.96
			c6.11-4.63,9.99-11.03,11.64-19.17h4.29c-1.73,9.45-6.09,16.83-13.06,22.17C331.39,345.39,322.91,348.06,312.95,348.06z"/>
		<path class="st2" d="M400.96,347.8c-10.4,0-18.55-2.88-24.44-8.65c-5.9-5.76-8.84-14.06-8.84-24.89V254.2h4.68v59.67
			c0,9.88,2.45,17.33,7.34,22.36c4.9,5.03,11.98,7.54,21.26,7.54c9.88,0,17.14-2.58,21.78-7.74c4.63-5.16,6.96-13.11,6.96-23.85
			V254.2h4.68v58.63c0,11.18-2.78,19.8-8.32,25.87C420.5,344.77,412.14,347.8,400.96,347.8z"/>
		<path class="st2" d="M457.12,347.15V254.2h23.79c9.62,0,17.2,1.95,22.75,5.85c5.55,3.9,8.32,10.05,8.32,18.46v0.52
			c0,14.39-8.23,22.45-24.7,24.18l30.16,43.94h-5.33l-29.9-43.55h-20.54v43.55H457.12z M461.67,299.7h19.37
			c17.51,0,26.26-6.89,26.26-20.67v-0.52c0-13.6-8.75-20.41-26.26-20.41h-19.37V299.7z"/>
		<path class="st1" d="M591.14,347.15L556.3,254.2h4.55L594,342.34l31.72-88.14h4.42l-33.41,92.95H591.14z"/>
		<path class="st1" d="M628.32,347.15l34.32-92.95h6.24l34.58,92.95h-4.68l-11.05-29.64h-44.07l-10.92,29.64H628.32z M665.63,257.97
			l-20.54,55.64h41.21L665.63,257.97z"/>
		<path class="st1" d="M743.76,348.06c-10.31,0-18.26-2.43-23.86-7.28c-5.59-4.85-8.9-11.27-9.94-19.24h4.55
			c2.25,15,12,22.49,29.25,22.49c7.97,0,14.28-2.01,18.92-6.04c4.63-4.03,6.96-9.17,6.96-15.41c0-7.02-1.93-12.04-5.79-15.08
			c-3.86-3.03-10.72-5.29-20.61-6.76c-10.4-1.47-17.92-4.09-22.55-7.86c-4.64-3.77-6.96-9.08-6.96-15.93
			c0-7.19,2.64-12.93,7.93-17.22c5.29-4.29,12.26-6.44,20.93-6.44c8.15,0,14.67,1.93,19.56,5.78c4.9,3.86,7.91,9.25,9.04,16.19
			h-4.42c-2.34-12.05-10.4-18.07-24.18-18.07c-7.63,0-13.58,1.69-17.88,5.07c-4.29,3.38-6.44,8.19-6.44,14.43
			c0,5.63,1.89,9.99,5.66,13.06c3.77,3.08,10.42,5.31,19.96,6.69c11,1.65,18.83,4.29,23.46,7.93c4.64,3.64,6.96,9.66,6.96,18.07
			c0,7.28-2.77,13.37-8.32,18.27C760.45,345.61,753.04,348.06,743.76,348.06z"/>
	</g>
	<g>
	</g>
	<g>
	</g>
	<g>
	</g>
	<g>
	</g>
	<g>
	</g>
</g>
</svg>
