<?xml version="1.0" encoding="utf-8"?>
<!-- Generator: Adobe Illustrator 24.0.1, SVG Export Plug-In . SVG Version: 6.00 Build 0)  -->
<svg version="1.1" xmlns="http://www.w3.org/2000/svg" xmlns:xlink="http://www.w3.org/1999/xlink" x="0px" y="0px"
	 viewBox="0 0 841.89 595.28" style="enable-background:new 0 0 841.89 595.28;" xml:space="preserve">
<style type="text/css">
	.st0{fill:none;stroke:#FF683B;stroke-width:2;stroke-miterlimit:10;}
	.st1{fill:#2F3F58;}
	.st2{display:none;}
	.st3{display:inline;}
	.st4{fill:#FF683B;}
	.st5{font-family:'Graphik-Extralight';}
	.st6{font-size:128.5338px;}
</style>
<g id="Camada_3">
	<path class="st0" d="M231.17,433.84c28.89-0.21,72.37-5.86,99.7-48.47c18.39-28.68,11.58-57.75,5.22-70.98
		c-9.11-18.95-15.55-22.67-30.18-46.32c-7.56-12.21-30.97-50.04-27.13-84.76c6.02-54.41,77.82-85.02,83.02-86.19
		c1.54-0.35-3.35,5.2-7.82,13.77c-12.95,24.82-14.42,64.97,6.83,94.44c28.61,39.68,60.64,40.22,68.81,40.26
		c24.34,0.13,38.93-3.83,66.91-12.41c27.82-8.53,60.56-7.11,90.28,18.42c37.73,32.41,35.99,88.5,34.8,98
		c-0.23,1.87-5.05-3.27-8.78-9.04c-4.54-4.89-45.93-48.09-99.75-39.7c-45.69,7.12-72.77,47.13-79.88,57.63
		c-15.38,22.73-14.55,29.98-28.91,56.18c-9.59,17.5-28.96,39.52-58.38,48.24c-20.51,6.08-64.41,1.74-111.35-22.67
		C227.88,436.78,227.43,433.87,231.17,433.84z"/>
</g>
<g id="Camada_4">
	<g>
		<path class="st0" d="M267.11,413.35c-7.48-15.05-43.94-59.51-41.99-114.09c0.9-25.15,7.56-45.78,17.01-58.75
			c15.94-21.87,36.54-32.96,35.83-33.08c-2.77-0.46-14.86,4.75-21.34,8.52c-46.48,27.07-54.63,81.15-55.78,85.74
			c-12.07,48.12,6.61,99.03,16.96,117.6c0.34,0.61,16.14-0.41,23.29-0.89C256.01,417.38,267.11,413.35,267.11,413.35z"/>
	</g>
</g>
<g id="Camada_1">
	<path class="st1" d="M672.29,297.91c0.15-146.29-120.11-266.8-266.4-266.94c-0.18,177.78-0.36,355.57-0.54,533.35
		C551.64,564.46,672.14,444.2,672.29,297.91z"/>
</g>
<g id="Camada_5" class="st2">
	<text transform="matrix(1 0 0 1 270.2887 347.1499)" class="st3"><tspan x="0" y="0" class="st4 st5 st6">CUR </tspan><tspan x="285.98" y="0" class="st1 st5 st6">VAS</tspan></text>
</g>
</svg>
